<?xml version="1.0" encoding="UTF-8"?>
<svg id="Layer_2" data-name="Layer 2" xmlns="http://www.w3.org/2000/svg" viewBox="0 0 1428.34 159.06">
  <g id="Layer_1-2" data-name="Layer 1">
    <g>
      <g>
        <path d="m19.19,78.52l-.2-51.86c0-2.31-1.12-4.66-3.37-7.04-2.25-2.38-4.53-3.64-6.84-3.78-2.32-.13-3.91-.27-4.8-.41-.89-.13-1.77-.58-2.65-1.33-.89-.75-1.33-1.77-1.33-3.06s.58-2.04,1.74-2.25c1.15-.2,4.05-.31,8.68-.31h17.76l39.82-.82c19.74,0,37.78,5.58,54.11,16.74,7.89,5.31,14.29,12.29,19.19,20.93,4.9,8.65,7.35,18,7.35,28.08s-.65,18.62-1.94,25.63c-1.3,7.01-3.44,13.07-6.43,18.17-3,5.1-5.99,9.26-8.98,12.46-3,3.2-6.81,6.71-11.43,10.52-4.63,3.81-10.82,7.15-18.58,10.01-7.76,2.86-15.72,4.29-23.89,4.29l-49.01-1.02c-4.77,0-9.19.17-13.27.51-4.08.34-6.47.51-7.15.51-3.27,0-4.9-.88-4.9-2.65,0-1.09.24-1.87.71-2.35s1.5-.92,3.06-1.33c1.56-.41,2.69-.75,3.37-1.02,2.18-.95,4.19-2.76,6.02-5.41,1.84-2.65,2.76-5.27,2.76-7.86l.2-55.34Zm17.15,3.06l-.2,43.49c0,6.4.68,10.96,2.04,13.68.68,1.23,1.97,2.11,3.88,2.65,1.9.55,4.08,1.16,6.53,1.84,2.45.68,5.27,1.46,8.47,2.35,3.2.89,7.38,1.33,12.56,1.33h4.08c9.26,0,17.15-1.33,23.69-3.98,6.53-2.65,12.79-6.84,18.79-12.56,10.07-9.66,15.11-25.32,15.11-46.96,0-10.89-2.14-20.76-6.43-29.61-4.29-8.85-9.9-15.93-16.85-21.24-14.29-10.75-29.88-16.13-46.76-16.13h-8.17c-6.53,0-10.89,1.16-13.07,3.47-1.09,1.09-1.74,2.04-1.94,2.86-.2.82-.48,2.42-.82,4.8-.34,2.38-.51,4.46-.51,6.23v8.58l-.41,39.2Z"/>
        <path d="m169.27,142.53c-9.87-9.87-14.56-20.86-14.08-32.99.48-12.13,5.1-22.57,13.86-31.33,8.76-8.76,19.42-13.4,31.98-13.93,12.56-.53,23.77,4.14,33.64,14.01,9.87,9.87,15.3,20.98,16.32,33.35,1.01,12.37-3.54,23.61-13.64,33.71-10.11,10.11-21.52,14.63-34.22,13.57-12.71-1.06-23.99-6.52-33.86-16.39Zm39.99-70.03c-7.85.05-16.29,4.6-25.34,13.64-9.05,9.05-13.86,19.16-14.44,30.32-.58,11.16,2.19,19.8,8.3,25.92,6.11,6.11,13.14,8.95,21.08,8.52,7.94-.43,15.95-4.69,24.04-12.78s13.11-17.73,15.09-28.95c1.97-11.21-1.18-20.96-9.46-29.24-5.01-5.01-11.43-7.48-19.28-7.44Z"/>
        <path d="m267.26,111.39l-.2-24.91c0-3.27-.71-5.58-2.14-6.94-1.43-1.36-3.03-2.04-4.8-2.04-4.49.27-6.74-.68-6.74-2.86,0-1.22.82-2.14,2.45-2.76,1.63-.61,4.08-1.26,7.35-1.94,3.27-.68,5.65-1.33,7.15-1.94,1.5-.61,2.72-1.19,3.68-1.74.95-.54,1.63-.88,2.04-1.02,1.23-.54,2.65-.82,4.29-.82s2.45,1.97,2.45,5.92l-1.02,8.58c0,1.63.41,2.45,1.23,2.45.13,0,.58-.51,1.33-1.53.75-1.02,1.77-2.25,3.06-3.68,1.29-1.43,2.89-2.89,4.8-4.39,4.63-3.4,10.11-5.1,16.44-5.1s11.33.85,15.01,2.55c3.68,1.7,6.23,3.54,7.66,5.51,1.43,1.97,2.62,3.81,3.57,5.51.95,1.7,1.53,2.55,1.74,2.55s1.5-1.39,3.88-4.19c2.38-2.79,5.78-5.58,10.21-8.37,4.42-2.79,9.09-4.19,13.99-4.19,9.93,0,17.59,2.93,22.97,8.78,5.38,5.85,8.51,12.97,9.39,21.34.88,8.37,1.33,17.19,1.33,26.44v6.53c0,6.13.34,10.55,1.02,13.27.68,2.72,2.25,4.49,4.7,5.31.13,0,.75.1,1.84.31,1.09.2,2.04.38,2.86.51,2.04.41,3.06,1.43,3.06,3.06,0,2.04-2.25,3.06-6.74,3.06l-13.48-.82-14.7.82c-3.27,0-4.9-.71-4.9-2.14s1.43-2.69,4.29-3.78c2.86-1.09,4.56-2.25,5.1-3.47.54-1.5.82-4.63.82-9.39v-3.27l-.2-21.64-.61-13.48c0-1.5-.2-2.89-.61-4.19-.41-1.29-.65-2.28-.71-2.96-.07-.68-.44-1.5-1.12-2.45-.68-.95-1.09-1.56-1.22-1.84-.55-1.09-1.63-2.45-3.27-4.08-3.54-4.22-8.65-6.33-15.31-6.33-3.13,0-6.4.82-9.8,2.45-3.4,1.63-6.13,3.3-8.17,5-2.04,1.7-3.06,2.83-3.06,3.37s.13,1.57.41,3.06c.54,4.49.82,12.18.82,23.07v17.36c0,6.26.88,10.86,2.65,13.78,1.77,2.93,5.58,4.8,11.43,5.62,1.36.14,2.31.58,2.86,1.33.54.75.82,1.4.82,1.94,0,1.5-1.3,2.25-3.88,2.25l-14.91-1.02-18.58,1.02c-3,0-4.49-.89-4.49-2.65,0-.95.27-1.67.82-2.14.54-.48,1.53-.99,2.96-1.53,1.43-.54,2.38-.95,2.86-1.23.47-.27,1.05-1.43,1.74-3.47.68-2.04,1.02-4.08,1.02-6.13v-3.88l.2-8.17v-12.46l-.2-10.82-.2-2.04c0-7.21-1.84-13-5.51-17.36-3.68-4.35-8.58-6.53-14.7-6.53s-11.43,1.5-15.93,4.49c-4.49,3-6.74,6.47-6.74,10.41v41.25c0,4.9.88,8.65,2.65,11.23,1.77,2.59,3.74,4.05,5.92,4.39,2.18.34,4.15.71,5.92,1.12,1.77.41,2.65,1.09,2.65,2.04,0,1.22-.2,2.04-.61,2.45-.41.41-1.63.61-3.68.61l-17.15-.61-16.13.61c-3.27,0-4.9-1.02-4.9-3.06,0-1.5,1.23-2.45,3.68-2.86.95-.13,1.97-.71,3.06-1.74,1.09-1.02,2.07-2.96,2.96-5.82.88-2.86,1.33-12.73,1.33-29.61Z"/>
        <path d="m438.17,154.68l-14.5.41c-5.45,0-8.17-.92-8.17-2.76s1.02-3.09,3.06-3.78c.13,0,.41-.07.82-.2,3.13-1.09,5.17-2.72,6.12-4.9.95-2.18,1.43-12.73,1.43-31.65v-17.97c0-3.95-.48-7.08-1.43-9.39-.95-2.31-1.84-3.74-2.65-4.29-.82-.54-2.21-.99-4.18-1.33-1.98-.34-3.41-.68-4.29-1.02-.89-.34-1.33-.88-1.33-1.63s.17-1.33.51-1.74c.34-.41,1.02-.85,2.04-1.33,1.02-.48,2.07-.92,3.17-1.33,3.81-1.09,6.94-2.18,9.39-3.27,2.45-1.09,4.32-1.9,5.61-2.45,1.29-.54,2.14-.95,2.55-1.23.95-.41,2.11-.61,3.47-.61,2.04,0,3.06,1.3,3.06,3.88l-1.22,9.8v55.95c0,4.08.64,7.28,1.94,9.6,1.29,2.32,2.65,3.75,4.08,4.29,1.43.55,3.09.89,5,1.02,1.9.14,3.13.2,3.68.2,1.91.27,2.86,1.22,2.86,2.86,0,2.31-1.16,3.47-3.47,3.47l-3.06-.2-14.5-.41Z"/>
        <path d="m420.88,33.81c.62-3.42,1.59-5.78,2.89-7.08s3.82-2.14,7.58-2.53c3.75-.39,6.38.17,7.87,1.66s1.97,3.95,1.44,7.36c-.53,3.42-1.57,5.9-3.1,7.44s-4.16,2.33-7.87,2.38c-3.71.05-5.99-.36-6.86-1.23-1.93-1.93-2.58-4.6-1.95-8.01Z"/>
        <path d="m504.12,153.87l-14.91-.82c-3.54,0-8.24.14-14.09.41l-8.78.41c-2.04,0-3.06-.61-3.06-1.84s.34-1.97,1.02-2.25c.68-.27,1.53-.48,2.55-.61,1.02-.13,2.01-.54,2.96-1.23,2.58-1.63,4.01-6.57,4.29-14.8.27-8.23.41-13.65.41-16.23v-29.4c0-4.35-.78-7.28-2.35-8.78-1.57-1.5-3.71-2.25-6.43-2.25h-2.04c-2.59,0-3.88-.75-3.88-2.25,0-1.36,1.46-2.25,4.39-2.65,2.93-.41,5.24-.85,6.94-1.33,1.7-.48,3.95-1.29,6.74-2.45,2.79-1.16,5.03-2.14,6.74-2.96,1.7-.82,2.82-1.22,3.37-1.22h.41c1.23,0,1.84.82,1.84,2.45l-.41,8.78c0,3.54.27,5.31.82,5.31s1.09-.34,1.63-1.02c2.04-2.86,4.76-5.31,8.17-7.35,6.13-3.81,11.98-5.72,17.56-5.72s10.55.85,14.91,2.55c4.35,1.7,7.76,3.81,10.21,6.33,2.45,2.52,4.49,5.41,6.13,8.68,2.72,5.45,4.08,11.03,4.08,16.74v2.04l.2,10.82v20.83c0,5.17.71,8.75,2.14,10.72,1.43,1.98,4.87,3.37,10.31,4.19,2.72.41,4.08,1.43,4.08,3.06,0,1.36-1.36,2.04-4.08,2.04l-16.74-1.02-15.72.82c-2.73,0-4.08-.88-4.08-2.65,0-1.22.82-2.04,2.45-2.45l2.65-.61c2.99-.95,4.49-5.51,4.49-13.68v-27.57c0-10.48-2.59-18.41-7.76-23.79-5.17-5.38-11.03-8.07-17.56-8.07s-11.98,1.57-16.33,4.7c-4.36,3.13-7.01,6.06-7.96,8.78-.95,2.72-1.43,13.14-1.43,31.24v7.76c0,6.81.71,11.84,2.14,15.11s4.59,5.1,9.49,5.51c1.36,0,3.1.24,5.21.71,2.11.48,3.17,1.26,3.17,2.35,0,1.77-1.29,2.65-3.88,2.65Z"/>
        <path d="m615.48,157.54c-15.08,0-27.08-4.56-35.98-13.69-8.91-9.12-13.35-20.03-13.35-32.71s4.6-23.75,13.79-33.23c9.19-9.47,21.33-14.21,36.42-14.21s27.73,4.11,37.96,12.33c10.23,8.22,15.34,19.65,15.34,34.28s-5.26,26.16-15.78,34.59c-10.52,8.43-23.32,12.64-38.41,12.64Zm-22.96-79.63c-5.96,5.71-8.94,15.12-8.94,28.21s4.04,23.9,12.14,32.39c8.09,8.5,16.81,12.75,26.16,12.75s16.88-3.03,22.62-9.09c5.74-6.06,8.61-14.94,8.61-26.65s-3.53-22.33-10.6-31.87c-7.06-9.54-16.92-14.32-29.58-14.32-7.65,0-14.46,2.86-20.42,8.57Z"/>
      </g>
      <g>
        <g>
          <path d="m703.5,155.39l-17.36.41c-3,0-4.49-1.09-4.49-3.27,0-1.23.88-2.01,2.65-2.35,1.77-.34,3.95-1.39,6.53-3.17,2.58-1.77,4.42-4.66,5.51-8.68,1.09-4.01,2.25-17.12,3.47-39.31,1.23-22.19,1.84-38.32,1.84-48.39s-1.63-18-4.9-23.79c-3.27-5.78-8.58-9.09-15.93-9.9-1.77-.13-2.65-1.15-2.65-3.06,0-.82.48-1.6,1.43-2.35.95-.75,2.18-1.12,3.68-1.12l7.76.2,10.01-.41c1.22,0,2.65.38,4.29,1.12,1.63.75,2.58,1.43,2.86,2.04.27.61,1.02,1.63,2.25,3.06s2.86,3.3,4.9,5.62c2.04,2.32,3.88,4.56,5.51,6.74,18.51,24.09,43.29,53.16,74.33,87.19.82.95,1.8,2.04,2.96,3.27,1.15,1.22,1.97,2.14,2.45,2.76.48.61.99,1.19,1.53,1.74.95.95,1.7,1.43,2.25,1.43,1.36,0,2.04-4.22,2.04-12.66v-23.89l-.41-41.86v-1.43c0-12.52-2.18-20.49-6.53-23.89-1.63-1.22-3-2.01-4.08-2.35-1.09-.34-2.65-.71-4.7-1.12-5.58-1.09-8.37-2.62-8.37-4.59s1.29-2.96,3.88-2.96l19.4.2,18.38-.41c2.31,0,3.91.24,4.8.71.88.48,1.33,1.19,1.33,2.14s-.41,1.7-1.22,2.25c-1.09.68-3.06,1.5-5.92,2.45-4.49,2.45-6.74,10.14-6.74,23.07v7.76l-2.25,101.07v4.08c0,3.13-.95,4.7-2.86,4.7-1.22,0-2.32-.48-3.27-1.43-45.2-52.41-72.18-83.55-80.96-93.42-8.78-9.87-13.65-14.8-14.6-14.8-1.36,0-2.04,5.55-2.04,16.64s-.27,24.09-.82,39c-.55,14.91-.82,23.04-.82,24.4,0,6.13,1.05,10.79,3.16,13.99,2.11,3.2,4.39,5,6.84,5.41,2.45.41,4.73.85,6.84,1.33,2.11.48,3.17,1.43,3.17,2.86s-.24,2.35-.71,2.76c-.48.41-1.33.61-2.55.61l-21.85-.41Z"/>
          <path d="m845.52,147.83c-8.37-7.35-12.56-18-12.56-31.96s3.84-25.63,11.54-35.02c7.69-9.39,17.66-14.09,29.91-14.09,5.72,0,10.92,1.02,15.62,3.06,4.7,2.04,8.34,4.53,10.92,7.45,2.58,2.93,4.76,6.02,6.53,9.29,2.99,5.58,4.49,9.8,4.49,12.66,0,2.45-2.79,3.68-8.37,3.68h-52.48c-1.09,0-1.74.1-1.94.31-.2.2-.31.85-.31,1.94,0,12.8,3.44,22.87,10.31,30.22,6.87,7.35,14.94,11.03,24.2,11.03,5.72,0,11.54-1.53,17.46-4.59,5.92-3.06,9.02-4.59,9.29-4.59,1.36,0,2.04.61,2.04,1.84,0,1.63-1.5,3.85-4.49,6.64-3,2.79-5.85,5.07-8.58,6.84-6.53,4.22-14.23,6.33-23.07,6.33-11.98,0-22.15-3.68-30.53-11.03Zm7.25-49.82l35.94-1.23c1.9,0,3.1-.17,3.57-.51.48-.34.71-.99.71-1.94,0-4.08-1.91-8.85-5.72-14.29-3.81-5.44-9.12-8.17-15.93-8.17s-12.05,2.69-15.72,8.07c-3.68,5.38-5.51,10.45-5.51,15.21,0,1.91.88,2.86,2.65,2.86Z"/>
          <path d="m991.61,68.81l6.33-.2c2.99,0,4.49.95,4.49,2.86,0,.95-.2,1.5-.61,1.63-.82.27-1.63.41-2.45.41-4.08.27-6.13,2.18-6.13,5.72,0,5.04,4.01,16.41,12.05,34.1,1.09,2.18,2.38,5.17,3.88,8.98,2.99,7.76,4.9,11.64,5.72,11.64,1.36,0,4.93-7.45,10.72-22.36,5.78-14.91,8.68-24.13,8.68-27.67s-.58-5.95-1.74-7.25c-1.16-1.29-2.42-2.01-3.78-2.14-3.81-.54-5.72-1.9-5.72-4.08,0-1.09,1.43-1.63,4.29-1.63h23.48c2.58,0,4.22.14,4.9.41.68.27,1.02,1.02,1.02,2.25s-1.12,2.28-3.37,3.16c-2.25.89-4.05,2.28-5.41,4.19-1.36,1.91-2.59,3.98-3.68,6.23-1.09,2.25-2.32,5-3.68,8.27-4.08,10.21-9.19,21.78-15.31,34.71-6.13,12.93-9.49,20.01-10.11,21.24-.61,1.23-1.4,2.65-2.35,4.29-1.36,2.72-2.65,4.08-3.88,4.08-2.32,0-6.67-8.81-13.07-26.44-6.4-17.63-10.14-26.44-11.23-26.44-.41,0-4.77,8.71-13.07,26.14-8.3,17.43-13.75,26.14-16.34,26.14-1.09,0-2.11-.95-3.06-2.86-.95-1.9-3.57-8.44-7.86-19.6-4.29-11.16-7.79-20.11-10.52-26.85-2.72-6.74-4.66-11.77-5.82-15.11-1.16-3.33-2.01-5.68-2.55-7.04-1.91-3.81-5.1-7.62-9.6-11.43-.55-.54-1.16-.99-1.84-1.33-.68-.34-1.16-.58-1.43-.71-.41-.41-.61-1.09-.61-2.04,0-1.5,1.29-2.25,3.88-2.25l14.5.82,10.01-.2c4.08,0,6.7.1,7.86.31,1.15.2,1.74.85,1.74,1.94s-.75,1.84-2.25,2.25c-4.49.95-6.74,3.64-6.74,8.07s3.81,15.21,11.43,32.36c.95,1.91,2.25,4.87,3.88,8.88,1.63,4.02,2.93,6.94,3.88,8.78.95,1.84,1.7,2.76,2.25,2.76s2.28-2.76,5.21-8.27c2.93-5.51,4.9-9.29,5.92-11.33,1.02-2.04,1.8-3.57,2.35-4.59.54-1.02,1.15-2.18,1.84-3.47.68-1.29,1.16-2.25,1.43-2.86.27-.61.58-1.33.92-2.14.34-.82.58-1.39.71-1.74.13-.34.27-.82.41-1.43.13-.61.2-1.12.2-1.53v-1.43c0-.95-.65-2.99-1.94-6.13-1.3-3.13-2.65-5.75-4.08-7.86-1.43-2.11-2.96-3.84-4.59-5.21-1.63-1.36-2.86-2.18-3.68-2.45-2.18-.82-3.27-1.84-3.27-3.06s1.02-1.84,3.06-1.84l24.71.41Z"/>
        </g>
        <g>
          <path d="m1102.24,137.01l.41-41.45c0-5.72-1.77-11.3-5.31-16.74-3.27-5.17-7.56-11.64-12.86-19.4-5.31-7.76-10.01-14.73-14.09-20.93-4.08-6.19-7.83-10.96-11.23-14.29-3.4-3.33-6.02-5.31-7.86-5.92-1.84-.61-4.22-.92-7.15-.92s-4.39-.82-4.39-2.45.78-2.65,2.35-3.06c1.56-.41,5-.61,10.31-.61l11.84.41,17.36-.2c6.8,0,10.21.78,10.21,2.35s-1.43,2.86-4.29,3.88c-2.86,1.02-4.29,2.18-4.29,3.47s.44,3.03,1.33,5.21c.88,2.18,1.77,3.95,2.65,5.31.88,1.36,2.21,3.34,3.98,5.92,1.77,2.59,3.88,5.85,6.33,9.8,2.45,3.95,6.16,9.26,11.13,15.93,4.97,6.67,7.83,10.01,8.58,10.01s1.74-.78,2.96-2.35c1.22-1.56,2.93-4.19,5.1-7.86,2.18-3.68,3.74-6.23,4.7-7.66.95-1.43,2.21-3.3,3.78-5.62,1.56-2.31,2.65-3.95,3.27-4.9.61-.95,1.53-2.42,2.76-4.39,1.22-1.97,2.11-3.47,2.65-4.49.54-1.02,1.15-2.28,1.84-3.78,1.36-2.45,2.04-4.49,2.04-6.13,0-4.9-3.13-7.76-9.39-8.58-3-.41-4.7-.99-5.1-1.74-.41-.75-.61-1.46-.61-2.14,0-1.63,1.9-2.45,5.72-2.45l8.37.2,21.64.2c6.67,0,10.01,1.02,10.01,3.06,0,.55-.41,1.02-1.23,1.43-.82.41-1.97.95-3.47,1.63-1.5.68-2.86,1.5-4.08,2.45-5.58,4.36-13.78,14.7-24.61,31.04-10.82,16.34-17.15,25.66-18.99,27.97-1.84,2.32-3.03,5.1-3.57,8.37-.55,3.27-.82,8.85-.82,16.74l.2,23.69v4.9c0,4.49.78,8.03,2.35,10.62,1.56,2.59,3.03,4.12,4.39,4.59,1.36.48,2.72.71,4.08.71l4.08.2c.95,0,1.7.31,2.25.92.54.61.82,1.43.82,2.45s-.34,1.74-1.02,2.14c-.68.41-1.98.61-3.88.61l-20.42-.2-22.46.82c-3.81,0-5.72-.68-5.72-2.04s.37-2.28,1.12-2.76c.75-.48,2.01-.78,3.78-.92,1.77-.13,3.06-.34,3.88-.61,5.72-1.77,8.58-5.92,8.58-12.46Z"/>
          <path d="m1205.46,158.86c-13.95,0-25.05-4.46-33.28-13.37-8.24-8.91-12.35-19.57-12.35-31.96s4.25-23.21,12.76-32.47c8.51-9.26,19.74-13.88,33.69-13.88s25.66,4.02,35.12,12.05c9.46,8.03,14.19,19.19,14.19,33.49s-4.87,25.56-14.6,33.79c-9.73,8.24-21.58,12.35-35.53,12.35Zm-21.24-77.8c-5.51,5.58-8.27,14.77-8.27,27.57s3.74,23.35,11.23,31.65c7.48,8.3,15.55,12.46,24.2,12.46s15.62-2.96,20.93-8.88c5.31-5.92,7.96-14.6,7.96-26.03s-3.27-21.81-9.8-31.14c-6.53-9.32-15.66-13.99-27.36-13.99-7.08,0-13.37,2.79-18.89,8.37Z"/>
          <path d="m1264.98,81.06l-2.25-.2c-2.59,0-3.88-1.09-3.88-3.27,0-1.5.92-2.62,2.76-3.37,1.84-.75,5.24-1.9,10.21-3.47,4.97-1.56,8.88-2.99,11.74-4.29,2.86-1.29,4.56-1.94,5.1-1.94,1.77,0,2.65,1.36,2.65,4.08l-.2,5.51c0,4.9.17,7.59.51,8.07.34.48.68.71,1.02.71s1.39-1.36,3.17-4.08c1.77-2.72,4.29-5.48,7.56-8.27,3.27-2.79,6.5-4.19,9.7-4.19s6.5,1.12,9.9,3.37c3.4,2.25,5.1,4.49,5.1,6.74s-.55,4.32-1.63,6.23c-1.91,3.27-3.68,4.9-5.31,4.9-1.09,0-3.03-.82-5.82-2.45-2.79-1.63-6.02-2.45-9.7-2.45s-7.11,1.5-10.31,4.49c-3.2,3-4.8,5.72-4.8,8.17v21.24l.2,17.76.2,3.68c0,2.86.95,5.31,2.86,7.35,1.9,2.04,3.71,3.2,5.41,3.47,1.7.27,3.16.48,4.39.61,1.23.14,2.18.24,2.86.31.68.07,1.43.24,2.25.51,1.5.27,2.25,1.26,2.25,2.96s-.82,2.55-2.45,2.55l-17.36-1.02-21.24,1.02c-2.45,0-3.81-.27-4.08-.82-.27-.54-.41-1.09-.41-1.63,0-1.77.88-2.93,2.65-3.47,3.54-.82,5.68-2.55,6.43-5.21.75-2.65,1.12-8.34,1.12-17.05l-.2-32.88-.2-6.13c0-1.5-.2-2.72-.61-3.68-1.09-2.58-4.29-3.88-9.6-3.88Z"/>
          <path d="m1328.89,16.54l-4.08.2c-2.72,0-4.08-.75-4.08-2.25s3.33-3.27,10.01-5.31c.95-.27,2.07-.61,3.37-1.02,1.29-.41,2.07-.64,2.35-.71.27-.07.78-.24,1.53-.51.75-.27,1.16-.44,1.23-.51s.41-.24,1.02-.51c.61-.27,1.05-.51,1.33-.71.27-.2.82-.54,1.63-1.02.82-.48,2.14-1.29,3.98-2.45,1.84-1.16,3.64-1.74,5.41-1.74s2.65,1.3,2.65,3.88c0,.27-.07,1.06-.2,2.35-.14,1.3-.31,3.2-.51,5.72-.2,2.52-.38,5.62-.51,9.29-.41,10.76-.61,22.19-.61,34.3l-.61,41.86v4.29c0,5.72.27,8.58.82,8.58,1.23,0,2.48-.68,3.78-2.04,1.29-1.36,2.21-2.25,2.76-2.65,19.06-15.24,28.59-23.82,28.59-25.73s-1.53-3.47-4.59-4.7c-3.06-1.23-4.59-2.38-4.59-3.47,0-1.36.82-2.04,2.45-2.04l3.68.2,30.02-1.02c3.54,0,5.31.55,5.31,1.63s-.41,1.84-1.23,2.25c-.82.41-1.91.68-3.27.82-4.49.68-9.53,2.93-15.11,6.74-.41.27-.85.61-1.33,1.02-.48.41-1.36,1.09-2.65,2.04-1.3.95-2.83,2.11-4.59,3.47-1.77,1.36-5.04,3.85-9.8,7.45-4.77,3.61-7.69,5.89-8.78,6.84-1.09.95-1.63,1.98-1.63,3.06s.75,2.65,2.25,4.7c12.39,15.11,23,26.54,31.85,34.3,3.68,3.27,7.38,5.38,11.13,6.33,3.74.95,6.43,1.43,8.07,1.43s2.45.61,2.45,1.84c0,1.63-.58,2.62-1.74,2.96-1.16.34-3.37.51-6.64.51l-21.24-.2c-3.4,0-14.09-11.09-32.06-33.28-3.54-4.35-5.48-6.81-5.82-7.35-.34-.54-1.09-.82-2.25-.82s-2.45.95-3.88,2.86c-1.43,1.91-2.14,4.08-2.14,6.53l.2,3.47c0,9.8.54,15.38,1.63,16.74.13.14.78.99,1.94,2.55,1.15,1.57,4.01,2.76,8.58,3.57,4.56.82,6.84,1.84,6.84,3.06,0,2.18-2.11,3.27-6.33,3.27l-19.81-1.23-14.91.82c-3.27,0-4.9-.82-4.9-2.45,0-1.36,1.7-2.52,5.1-3.47,3.13-1.23,5.1-2.99,5.92-5.31.82-2.31,1.23-6.81,1.23-13.48l.2-8.98.2-90.66c0-10.21-3.2-15.31-9.6-15.31Z"/>
        </g>
      </g>
    </g>
  </g>
</svg>